<mxfile host="app.diagrams.net" modified="2021-06-30T09:25:08.687Z" agent="5.0 (Windows NT 10.0; Win64; x64) AppleWebKit/537.36 (KHTML, like Gecko) Chrome/91.0.4472.114 Safari/537.36" etag="ttRnRu1vANxOX_NEuAXz" version="14.8.2" type="github">
  <diagram id="C5RBs43oDa-KdzZeNtuy" name="Page-1">
    <mxGraphModel dx="2075" dy="677" grid="1" gridSize="10" guides="1" tooltips="1" connect="1" arrows="1" fold="1" page="1" pageScale="1" pageWidth="827" pageHeight="1169" math="0" shadow="0">
      <root>
        <mxCell id="WIyWlLk6GJQsqaUBKTNV-0" />
        <mxCell id="WIyWlLk6GJQsqaUBKTNV-1" parent="WIyWlLk6GJQsqaUBKTNV-0" />
        <mxCell id="yh2cUwykDITBl05Ryp6r-19" value="Tournamet" style="swimlane;fontStyle=2;align=center;verticalAlign=top;childLayout=stackLayout;horizontal=1;startSize=26;horizontalStack=0;resizeParent=1;resizeLast=0;collapsible=1;marginBottom=0;rounded=0;shadow=0;strokeWidth=1;" vertex="1" parent="WIyWlLk6GJQsqaUBKTNV-1">
          <mxGeometry x="-100" y="600" width="160" height="190" as="geometry">
            <mxRectangle x="230" y="140" width="160" height="26" as="alternateBounds" />
          </mxGeometry>
        </mxCell>
        <mxCell id="yh2cUwykDITBl05Ryp6r-20" value="id" style="text;align=left;verticalAlign=top;spacingLeft=4;spacingRight=4;overflow=hidden;rotatable=0;points=[[0,0.5],[1,0.5]];portConstraint=eastwest;" vertex="1" parent="yh2cUwykDITBl05Ryp6r-19">
          <mxGeometry y="26" width="160" height="26" as="geometry" />
        </mxCell>
        <mxCell id="yh2cUwykDITBl05Ryp6r-21" value="name" style="text;align=left;verticalAlign=top;spacingLeft=4;spacingRight=4;overflow=hidden;rotatable=0;points=[[0,0.5],[1,0.5]];portConstraint=eastwest;rounded=0;shadow=0;html=0;" vertex="1" parent="yh2cUwykDITBl05Ryp6r-19">
          <mxGeometry y="52" width="160" height="26" as="geometry" />
        </mxCell>
        <mxCell id="yh2cUwykDITBl05Ryp6r-22" value="date_start" style="text;align=left;verticalAlign=top;spacingLeft=4;spacingRight=4;overflow=hidden;rotatable=0;points=[[0,0.5],[1,0.5]];portConstraint=eastwest;rounded=0;shadow=0;html=0;" vertex="1" parent="yh2cUwykDITBl05Ryp6r-19">
          <mxGeometry y="78" width="160" height="24" as="geometry" />
        </mxCell>
        <mxCell id="yh2cUwykDITBl05Ryp6r-27" value="date_end" style="text;align=left;verticalAlign=top;spacingLeft=4;spacingRight=4;overflow=hidden;rotatable=0;points=[[0,0.5],[1,0.5]];portConstraint=eastwest;rounded=0;shadow=0;html=0;" vertex="1" parent="yh2cUwykDITBl05Ryp6r-19">
          <mxGeometry y="102" width="160" height="26" as="geometry" />
        </mxCell>
        <mxCell id="yh2cUwykDITBl05Ryp6r-26" value="registration_end_date&#xa;" style="text;align=left;verticalAlign=top;spacingLeft=4;spacingRight=4;overflow=hidden;rotatable=0;points=[[0,0.5],[1,0.5]];portConstraint=eastwest;rounded=0;shadow=0;html=0;" vertex="1" parent="yh2cUwykDITBl05Ryp6r-19">
          <mxGeometry y="128" width="160" height="26" as="geometry" />
        </mxCell>
        <mxCell id="yh2cUwykDITBl05Ryp6r-23" value="" style="line;html=1;strokeWidth=1;align=left;verticalAlign=middle;spacingTop=-1;spacingLeft=3;spacingRight=3;rotatable=0;labelPosition=right;points=[];portConstraint=eastwest;" vertex="1" parent="yh2cUwykDITBl05Ryp6r-19">
          <mxGeometry y="154" width="160" height="8" as="geometry" />
        </mxCell>
        <mxCell id="yh2cUwykDITBl05Ryp6r-30" value="Team" style="swimlane;fontStyle=2;align=center;verticalAlign=top;childLayout=stackLayout;horizontal=1;startSize=26;horizontalStack=0;resizeParent=1;resizeLast=0;collapsible=1;marginBottom=0;rounded=0;shadow=0;strokeWidth=1;" vertex="1" parent="WIyWlLk6GJQsqaUBKTNV-1">
          <mxGeometry x="660" y="635" width="160" height="120" as="geometry">
            <mxRectangle x="230" y="140" width="160" height="26" as="alternateBounds" />
          </mxGeometry>
        </mxCell>
        <mxCell id="yh2cUwykDITBl05Ryp6r-31" value="id" style="text;align=left;verticalAlign=top;spacingLeft=4;spacingRight=4;overflow=hidden;rotatable=0;points=[[0,0.5],[1,0.5]];portConstraint=eastwest;" vertex="1" parent="yh2cUwykDITBl05Ryp6r-30">
          <mxGeometry y="26" width="160" height="26" as="geometry" />
        </mxCell>
        <mxCell id="yh2cUwykDITBl05Ryp6r-32" value="name" style="text;align=left;verticalAlign=top;spacingLeft=4;spacingRight=4;overflow=hidden;rotatable=0;points=[[0,0.5],[1,0.5]];portConstraint=eastwest;rounded=0;shadow=0;html=0;" vertex="1" parent="yh2cUwykDITBl05Ryp6r-30">
          <mxGeometry y="52" width="160" height="26" as="geometry" />
        </mxCell>
        <mxCell id="yh2cUwykDITBl05Ryp6r-36" value="" style="line;html=1;strokeWidth=1;align=left;verticalAlign=middle;spacingTop=-1;spacingLeft=3;spacingRight=3;rotatable=0;labelPosition=right;points=[];portConstraint=eastwest;" vertex="1" parent="yh2cUwykDITBl05Ryp6r-30">
          <mxGeometry y="78" width="160" height="32" as="geometry" />
        </mxCell>
        <mxCell id="yh2cUwykDITBl05Ryp6r-47" value="Tournament" style="shape=table;startSize=30;container=1;collapsible=1;childLayout=tableLayout;fixedRows=1;rowLines=0;fontStyle=1;align=center;resizeLast=1;strokeColor=#d79b00;fillColor=#ffe6cc;" vertex="1" parent="WIyWlLk6GJQsqaUBKTNV-1">
          <mxGeometry x="80" y="350" width="180" height="190" as="geometry" />
        </mxCell>
        <mxCell id="yh2cUwykDITBl05Ryp6r-48" value="" style="shape=partialRectangle;collapsible=0;dropTarget=0;pointerEvents=0;fillColor=none;top=0;left=0;bottom=1;right=0;points=[[0,0.5],[1,0.5]];portConstraint=eastwest;" vertex="1" parent="yh2cUwykDITBl05Ryp6r-47">
          <mxGeometry y="30" width="180" height="30" as="geometry" />
        </mxCell>
        <mxCell id="yh2cUwykDITBl05Ryp6r-49" value="PK" style="shape=partialRectangle;connectable=0;fillColor=none;top=0;left=0;bottom=0;right=0;fontStyle=1;overflow=hidden;" vertex="1" parent="yh2cUwykDITBl05Ryp6r-48">
          <mxGeometry width="30" height="30" as="geometry" />
        </mxCell>
        <mxCell id="yh2cUwykDITBl05Ryp6r-50" value="TournamentID" style="shape=partialRectangle;connectable=0;fillColor=none;top=0;left=0;bottom=0;right=0;align=left;spacingLeft=6;fontStyle=5;overflow=hidden;" vertex="1" parent="yh2cUwykDITBl05Ryp6r-48">
          <mxGeometry x="30" width="150" height="30" as="geometry" />
        </mxCell>
        <mxCell id="yh2cUwykDITBl05Ryp6r-51" value="" style="shape=partialRectangle;collapsible=0;dropTarget=0;pointerEvents=0;fillColor=none;top=0;left=0;bottom=0;right=0;points=[[0,0.5],[1,0.5]];portConstraint=eastwest;" vertex="1" parent="yh2cUwykDITBl05Ryp6r-47">
          <mxGeometry y="60" width="180" height="30" as="geometry" />
        </mxCell>
        <mxCell id="yh2cUwykDITBl05Ryp6r-52" value="" style="shape=partialRectangle;connectable=0;fillColor=none;top=0;left=0;bottom=0;right=0;editable=1;overflow=hidden;" vertex="1" parent="yh2cUwykDITBl05Ryp6r-51">
          <mxGeometry width="30" height="30" as="geometry" />
        </mxCell>
        <mxCell id="yh2cUwykDITBl05Ryp6r-53" value="Name" style="shape=partialRectangle;connectable=0;fillColor=none;top=0;left=0;bottom=0;right=0;align=left;spacingLeft=6;overflow=hidden;" vertex="1" parent="yh2cUwykDITBl05Ryp6r-51">
          <mxGeometry x="30" width="150" height="30" as="geometry" />
        </mxCell>
        <mxCell id="yh2cUwykDITBl05Ryp6r-54" value="" style="shape=partialRectangle;collapsible=0;dropTarget=0;pointerEvents=0;fillColor=none;top=0;left=0;bottom=0;right=0;points=[[0,0.5],[1,0.5]];portConstraint=eastwest;" vertex="1" parent="yh2cUwykDITBl05Ryp6r-47">
          <mxGeometry y="90" width="180" height="30" as="geometry" />
        </mxCell>
        <mxCell id="yh2cUwykDITBl05Ryp6r-55" value="" style="shape=partialRectangle;connectable=0;fillColor=none;top=0;left=0;bottom=0;right=0;editable=1;overflow=hidden;" vertex="1" parent="yh2cUwykDITBl05Ryp6r-54">
          <mxGeometry width="30" height="30" as="geometry" />
        </mxCell>
        <mxCell id="yh2cUwykDITBl05Ryp6r-56" value="DateStart" style="shape=partialRectangle;connectable=0;fillColor=none;top=0;left=0;bottom=0;right=0;align=left;spacingLeft=6;overflow=hidden;" vertex="1" parent="yh2cUwykDITBl05Ryp6r-54">
          <mxGeometry x="30" width="150" height="30" as="geometry" />
        </mxCell>
        <mxCell id="yh2cUwykDITBl05Ryp6r-57" value="" style="shape=partialRectangle;collapsible=0;dropTarget=0;pointerEvents=0;fillColor=none;top=0;left=0;bottom=0;right=0;points=[[0,0.5],[1,0.5]];portConstraint=eastwest;" vertex="1" parent="yh2cUwykDITBl05Ryp6r-47">
          <mxGeometry y="120" width="180" height="30" as="geometry" />
        </mxCell>
        <mxCell id="yh2cUwykDITBl05Ryp6r-58" value="" style="shape=partialRectangle;connectable=0;fillColor=none;top=0;left=0;bottom=0;right=0;editable=1;overflow=hidden;" vertex="1" parent="yh2cUwykDITBl05Ryp6r-57">
          <mxGeometry width="30" height="30" as="geometry" />
        </mxCell>
        <mxCell id="yh2cUwykDITBl05Ryp6r-59" value="DateEnd" style="shape=partialRectangle;connectable=0;fillColor=none;top=0;left=0;bottom=0;right=0;align=left;spacingLeft=6;overflow=hidden;" vertex="1" parent="yh2cUwykDITBl05Ryp6r-57">
          <mxGeometry x="30" width="150" height="30" as="geometry" />
        </mxCell>
        <mxCell id="yh2cUwykDITBl05Ryp6r-60" value="" style="shape=partialRectangle;collapsible=0;dropTarget=0;pointerEvents=0;fillColor=none;top=0;left=0;bottom=0;right=0;points=[[0,0.5],[1,0.5]];portConstraint=eastwest;" vertex="1" parent="yh2cUwykDITBl05Ryp6r-47">
          <mxGeometry y="150" width="180" height="30" as="geometry" />
        </mxCell>
        <mxCell id="yh2cUwykDITBl05Ryp6r-61" value="" style="shape=partialRectangle;connectable=0;fillColor=none;top=0;left=0;bottom=0;right=0;editable=1;overflow=hidden;" vertex="1" parent="yh2cUwykDITBl05Ryp6r-60">
          <mxGeometry width="30" height="30" as="geometry" />
        </mxCell>
        <mxCell id="yh2cUwykDITBl05Ryp6r-62" value="RegistrationEndDate" style="shape=partialRectangle;connectable=0;fillColor=none;top=0;left=0;bottom=0;right=0;align=left;spacingLeft=6;overflow=hidden;" vertex="1" parent="yh2cUwykDITBl05Ryp6r-60">
          <mxGeometry x="30" width="150" height="30" as="geometry" />
        </mxCell>
        <mxCell id="yh2cUwykDITBl05Ryp6r-63" value="Team" style="shape=table;startSize=30;container=1;collapsible=1;childLayout=tableLayout;fixedRows=1;rowLines=0;fontStyle=1;align=center;resizeLast=1;strokeColor=#d79b00;fillColor=#ffe6cc;" vertex="1" parent="WIyWlLk6GJQsqaUBKTNV-1">
          <mxGeometry x="80" y="140" width="138" height="130" as="geometry" />
        </mxCell>
        <mxCell id="yh2cUwykDITBl05Ryp6r-64" value="" style="shape=partialRectangle;collapsible=0;dropTarget=0;pointerEvents=0;fillColor=none;top=0;left=0;bottom=1;right=0;points=[[0,0.5],[1,0.5]];portConstraint=eastwest;" vertex="1" parent="yh2cUwykDITBl05Ryp6r-63">
          <mxGeometry y="30" width="138" height="30" as="geometry" />
        </mxCell>
        <mxCell id="yh2cUwykDITBl05Ryp6r-65" value="PK" style="shape=partialRectangle;connectable=0;fillColor=none;top=0;left=0;bottom=0;right=0;fontStyle=1;overflow=hidden;" vertex="1" parent="yh2cUwykDITBl05Ryp6r-64">
          <mxGeometry width="30" height="30" as="geometry" />
        </mxCell>
        <mxCell id="yh2cUwykDITBl05Ryp6r-66" value="TeamID" style="shape=partialRectangle;connectable=0;fillColor=none;top=0;left=0;bottom=0;right=0;align=left;spacingLeft=6;fontStyle=5;overflow=hidden;" vertex="1" parent="yh2cUwykDITBl05Ryp6r-64">
          <mxGeometry x="30" width="108" height="30" as="geometry" />
        </mxCell>
        <mxCell id="yh2cUwykDITBl05Ryp6r-67" value="" style="shape=partialRectangle;collapsible=0;dropTarget=0;pointerEvents=0;fillColor=none;top=0;left=0;bottom=0;right=0;points=[[0,0.5],[1,0.5]];portConstraint=eastwest;" vertex="1" parent="yh2cUwykDITBl05Ryp6r-63">
          <mxGeometry y="60" width="138" height="30" as="geometry" />
        </mxCell>
        <mxCell id="yh2cUwykDITBl05Ryp6r-68" value="FK" style="shape=partialRectangle;connectable=0;fillColor=none;top=0;left=0;bottom=0;right=0;editable=1;overflow=hidden;" vertex="1" parent="yh2cUwykDITBl05Ryp6r-67">
          <mxGeometry width="30" height="30" as="geometry" />
        </mxCell>
        <mxCell id="yh2cUwykDITBl05Ryp6r-69" value="TournamentID" style="shape=partialRectangle;connectable=0;fillColor=none;top=0;left=0;bottom=0;right=0;align=left;spacingLeft=6;overflow=hidden;" vertex="1" parent="yh2cUwykDITBl05Ryp6r-67">
          <mxGeometry x="30" width="108" height="30" as="geometry" />
        </mxCell>
        <mxCell id="yh2cUwykDITBl05Ryp6r-70" value="" style="shape=partialRectangle;collapsible=0;dropTarget=0;pointerEvents=0;fillColor=none;top=0;left=0;bottom=0;right=0;points=[[0,0.5],[1,0.5]];portConstraint=eastwest;" vertex="1" parent="yh2cUwykDITBl05Ryp6r-63">
          <mxGeometry y="90" width="138" height="30" as="geometry" />
        </mxCell>
        <mxCell id="yh2cUwykDITBl05Ryp6r-71" value="" style="shape=partialRectangle;connectable=0;fillColor=none;top=0;left=0;bottom=0;right=0;editable=1;overflow=hidden;" vertex="1" parent="yh2cUwykDITBl05Ryp6r-70">
          <mxGeometry width="30" height="30" as="geometry" />
        </mxCell>
        <mxCell id="yh2cUwykDITBl05Ryp6r-72" value="Name" style="shape=partialRectangle;connectable=0;fillColor=none;top=0;left=0;bottom=0;right=0;align=left;spacingLeft=6;overflow=hidden;" vertex="1" parent="yh2cUwykDITBl05Ryp6r-70">
          <mxGeometry x="30" width="108" height="30" as="geometry" />
        </mxCell>
        <mxCell id="yh2cUwykDITBl05Ryp6r-76" value="" style="fontSize=12;html=1;endArrow=ERzeroToMany;startArrow=ERmandOne;rounded=1;entryX=0.5;entryY=1;entryDx=0;entryDy=0;" edge="1" parent="WIyWlLk6GJQsqaUBKTNV-1" target="yh2cUwykDITBl05Ryp6r-63">
          <mxGeometry width="100" height="100" relative="1" as="geometry">
            <mxPoint x="149" y="348" as="sourcePoint" />
            <mxPoint x="100" y="200" as="targetPoint" />
          </mxGeometry>
        </mxCell>
        <mxCell id="yh2cUwykDITBl05Ryp6r-77" value="User" style="shape=table;startSize=30;container=1;collapsible=1;childLayout=tableLayout;fixedRows=1;rowLines=0;fontStyle=1;align=center;resizeLast=1;strokeColor=#d79b00;fillColor=#ffe6cc;" vertex="1" parent="WIyWlLk6GJQsqaUBKTNV-1">
          <mxGeometry x="460" y="350" width="180" height="190" as="geometry" />
        </mxCell>
        <mxCell id="yh2cUwykDITBl05Ryp6r-78" value="" style="shape=partialRectangle;collapsible=0;dropTarget=0;pointerEvents=0;fillColor=none;top=0;left=0;bottom=1;right=0;points=[[0,0.5],[1,0.5]];portConstraint=eastwest;" vertex="1" parent="yh2cUwykDITBl05Ryp6r-77">
          <mxGeometry y="30" width="180" height="30" as="geometry" />
        </mxCell>
        <mxCell id="yh2cUwykDITBl05Ryp6r-79" value="PK" style="shape=partialRectangle;connectable=0;fillColor=none;top=0;left=0;bottom=0;right=0;fontStyle=1;overflow=hidden;" vertex="1" parent="yh2cUwykDITBl05Ryp6r-78">
          <mxGeometry width="30" height="30" as="geometry" />
        </mxCell>
        <mxCell id="yh2cUwykDITBl05Ryp6r-80" value="UserID" style="shape=partialRectangle;connectable=0;fillColor=none;top=0;left=0;bottom=0;right=0;align=left;spacingLeft=6;fontStyle=5;overflow=hidden;" vertex="1" parent="yh2cUwykDITBl05Ryp6r-78">
          <mxGeometry x="30" width="150" height="30" as="geometry" />
        </mxCell>
        <mxCell id="yh2cUwykDITBl05Ryp6r-81" value="" style="shape=partialRectangle;collapsible=0;dropTarget=0;pointerEvents=0;fillColor=none;top=0;left=0;bottom=0;right=0;points=[[0,0.5],[1,0.5]];portConstraint=eastwest;" vertex="1" parent="yh2cUwykDITBl05Ryp6r-77">
          <mxGeometry y="60" width="180" height="30" as="geometry" />
        </mxCell>
        <mxCell id="yh2cUwykDITBl05Ryp6r-82" value="" style="shape=partialRectangle;connectable=0;fillColor=none;top=0;left=0;bottom=0;right=0;editable=1;overflow=hidden;" vertex="1" parent="yh2cUwykDITBl05Ryp6r-81">
          <mxGeometry width="30" height="30" as="geometry" />
        </mxCell>
        <mxCell id="yh2cUwykDITBl05Ryp6r-83" value="Row 1" style="shape=partialRectangle;connectable=0;fillColor=none;top=0;left=0;bottom=0;right=0;align=left;spacingLeft=6;overflow=hidden;" vertex="1" parent="yh2cUwykDITBl05Ryp6r-81">
          <mxGeometry x="30" width="150" height="30" as="geometry" />
        </mxCell>
        <mxCell id="yh2cUwykDITBl05Ryp6r-84" value="" style="shape=partialRectangle;collapsible=0;dropTarget=0;pointerEvents=0;fillColor=none;top=0;left=0;bottom=0;right=0;points=[[0,0.5],[1,0.5]];portConstraint=eastwest;" vertex="1" parent="yh2cUwykDITBl05Ryp6r-77">
          <mxGeometry y="90" width="180" height="30" as="geometry" />
        </mxCell>
        <mxCell id="yh2cUwykDITBl05Ryp6r-85" value="" style="shape=partialRectangle;connectable=0;fillColor=none;top=0;left=0;bottom=0;right=0;editable=1;overflow=hidden;" vertex="1" parent="yh2cUwykDITBl05Ryp6r-84">
          <mxGeometry width="30" height="30" as="geometry" />
        </mxCell>
        <mxCell id="yh2cUwykDITBl05Ryp6r-86" value="Row 2" style="shape=partialRectangle;connectable=0;fillColor=none;top=0;left=0;bottom=0;right=0;align=left;spacingLeft=6;overflow=hidden;" vertex="1" parent="yh2cUwykDITBl05Ryp6r-84">
          <mxGeometry x="30" width="150" height="30" as="geometry" />
        </mxCell>
        <mxCell id="yh2cUwykDITBl05Ryp6r-87" value="" style="shape=partialRectangle;collapsible=0;dropTarget=0;pointerEvents=0;fillColor=none;top=0;left=0;bottom=0;right=0;points=[[0,0.5],[1,0.5]];portConstraint=eastwest;" vertex="1" parent="yh2cUwykDITBl05Ryp6r-77">
          <mxGeometry y="120" width="180" height="30" as="geometry" />
        </mxCell>
        <mxCell id="yh2cUwykDITBl05Ryp6r-88" value="" style="shape=partialRectangle;connectable=0;fillColor=none;top=0;left=0;bottom=0;right=0;editable=1;overflow=hidden;" vertex="1" parent="yh2cUwykDITBl05Ryp6r-87">
          <mxGeometry width="30" height="30" as="geometry" />
        </mxCell>
        <mxCell id="yh2cUwykDITBl05Ryp6r-89" value="Row 3" style="shape=partialRectangle;connectable=0;fillColor=none;top=0;left=0;bottom=0;right=0;align=left;spacingLeft=6;overflow=hidden;" vertex="1" parent="yh2cUwykDITBl05Ryp6r-87">
          <mxGeometry x="30" width="150" height="30" as="geometry" />
        </mxCell>
        <mxCell id="yh2cUwykDITBl05Ryp6r-90" value="" style="fontSize=12;html=1;endArrow=ERmany;startArrow=ERmany;strokeColor=#000000;entryX=0.001;entryY=-0.03;entryDx=0;entryDy=0;entryPerimeter=0;" edge="1" parent="WIyWlLk6GJQsqaUBKTNV-1" target="yh2cUwykDITBl05Ryp6r-84">
          <mxGeometry width="100" height="100" relative="1" as="geometry">
            <mxPoint x="260" y="439" as="sourcePoint" />
            <mxPoint x="460" y="400" as="targetPoint" />
          </mxGeometry>
        </mxCell>
        <mxCell id="yh2cUwykDITBl05Ryp6r-91" value="Table" style="shape=table;startSize=30;container=1;collapsible=1;childLayout=tableLayout;fixedRows=1;rowLines=0;fontStyle=1;align=center;resizeLast=1;strokeColor=#000000;" vertex="1" parent="WIyWlLk6GJQsqaUBKTNV-1">
          <mxGeometry x="270" y="560" width="180" height="160" as="geometry" />
        </mxCell>
        <mxCell id="yh2cUwykDITBl05Ryp6r-92" value="" style="shape=partialRectangle;collapsible=0;dropTarget=0;pointerEvents=0;fillColor=none;top=0;left=0;bottom=1;right=0;points=[[0,0.5],[1,0.5]];portConstraint=eastwest;" vertex="1" parent="yh2cUwykDITBl05Ryp6r-91">
          <mxGeometry y="30" width="180" height="30" as="geometry" />
        </mxCell>
        <mxCell id="yh2cUwykDITBl05Ryp6r-93" value="PK" style="shape=partialRectangle;connectable=0;fillColor=none;top=0;left=0;bottom=0;right=0;fontStyle=1;overflow=hidden;" vertex="1" parent="yh2cUwykDITBl05Ryp6r-92">
          <mxGeometry width="30" height="30" as="geometry" />
        </mxCell>
        <mxCell id="yh2cUwykDITBl05Ryp6r-94" value="UniqueID" style="shape=partialRectangle;connectable=0;fillColor=none;top=0;left=0;bottom=0;right=0;align=left;spacingLeft=6;fontStyle=5;overflow=hidden;" vertex="1" parent="yh2cUwykDITBl05Ryp6r-92">
          <mxGeometry x="30" width="150" height="30" as="geometry" />
        </mxCell>
        <mxCell id="yh2cUwykDITBl05Ryp6r-95" value="" style="shape=partialRectangle;collapsible=0;dropTarget=0;pointerEvents=0;fillColor=none;top=0;left=0;bottom=0;right=0;points=[[0,0.5],[1,0.5]];portConstraint=eastwest;" vertex="1" parent="yh2cUwykDITBl05Ryp6r-91">
          <mxGeometry y="60" width="180" height="30" as="geometry" />
        </mxCell>
        <mxCell id="yh2cUwykDITBl05Ryp6r-96" value="" style="shape=partialRectangle;connectable=0;fillColor=none;top=0;left=0;bottom=0;right=0;editable=1;overflow=hidden;" vertex="1" parent="yh2cUwykDITBl05Ryp6r-95">
          <mxGeometry width="30" height="30" as="geometry" />
        </mxCell>
        <mxCell id="yh2cUwykDITBl05Ryp6r-97" value="Row 1" style="shape=partialRectangle;connectable=0;fillColor=none;top=0;left=0;bottom=0;right=0;align=left;spacingLeft=6;overflow=hidden;" vertex="1" parent="yh2cUwykDITBl05Ryp6r-95">
          <mxGeometry x="30" width="150" height="30" as="geometry" />
        </mxCell>
        <mxCell id="yh2cUwykDITBl05Ryp6r-98" value="" style="shape=partialRectangle;collapsible=0;dropTarget=0;pointerEvents=0;fillColor=none;top=0;left=0;bottom=0;right=0;points=[[0,0.5],[1,0.5]];portConstraint=eastwest;" vertex="1" parent="yh2cUwykDITBl05Ryp6r-91">
          <mxGeometry y="90" width="180" height="30" as="geometry" />
        </mxCell>
        <mxCell id="yh2cUwykDITBl05Ryp6r-99" value="" style="shape=partialRectangle;connectable=0;fillColor=none;top=0;left=0;bottom=0;right=0;editable=1;overflow=hidden;" vertex="1" parent="yh2cUwykDITBl05Ryp6r-98">
          <mxGeometry width="30" height="30" as="geometry" />
        </mxCell>
        <mxCell id="yh2cUwykDITBl05Ryp6r-100" value="Row 2" style="shape=partialRectangle;connectable=0;fillColor=none;top=0;left=0;bottom=0;right=0;align=left;spacingLeft=6;overflow=hidden;" vertex="1" parent="yh2cUwykDITBl05Ryp6r-98">
          <mxGeometry x="30" width="150" height="30" as="geometry" />
        </mxCell>
        <mxCell id="yh2cUwykDITBl05Ryp6r-101" value="" style="shape=partialRectangle;collapsible=0;dropTarget=0;pointerEvents=0;fillColor=none;top=0;left=0;bottom=0;right=0;points=[[0,0.5],[1,0.5]];portConstraint=eastwest;" vertex="1" parent="yh2cUwykDITBl05Ryp6r-91">
          <mxGeometry y="120" width="180" height="30" as="geometry" />
        </mxCell>
        <mxCell id="yh2cUwykDITBl05Ryp6r-102" value="" style="shape=partialRectangle;connectable=0;fillColor=none;top=0;left=0;bottom=0;right=0;editable=1;overflow=hidden;" vertex="1" parent="yh2cUwykDITBl05Ryp6r-101">
          <mxGeometry width="30" height="30" as="geometry" />
        </mxCell>
        <mxCell id="yh2cUwykDITBl05Ryp6r-103" value="Row 3" style="shape=partialRectangle;connectable=0;fillColor=none;top=0;left=0;bottom=0;right=0;align=left;spacingLeft=6;overflow=hidden;" vertex="1" parent="yh2cUwykDITBl05Ryp6r-101">
          <mxGeometry x="30" width="150" height="30" as="geometry" />
        </mxCell>
      </root>
    </mxGraphModel>
  </diagram>
</mxfile>
